<mxfile host="app.diagrams.net" agent="Mozilla/5.0 (Macintosh; Intel Mac OS X 10_15_7) AppleWebKit/537.36 (KHTML, like Gecko) Chrome/134.0.0.0 Safari/537.36" version="26.1.0">
  <diagram name="第 1 页" id="QEm1x_4ddXBvyxmgqNDN">
    <mxGraphModel dx="1338" dy="746" grid="1" gridSize="10" guides="1" tooltips="1" connect="1" arrows="1" fold="1" page="1" pageScale="1" pageWidth="827" pageHeight="1169" math="0" shadow="0">
      <root>
        <mxCell id="0" />
        <mxCell id="1" parent="0" />
        <mxCell id="FhH42oNWLTz3iLt1cTTA-1" value="" style="rounded=0;whiteSpace=wrap;html=1;fillColor=#dae8fc;strokeColor=#6c8ebf;" vertex="1" parent="1">
          <mxGeometry x="80" y="180" width="460" height="390" as="geometry" />
        </mxCell>
        <mxCell id="FhH42oNWLTz3iLt1cTTA-2" value="Pool" style="swimlane;html=1;childLayout=stackLayout;startSize=20;rounded=0;shadow=0;labelBackgroundColor=none;strokeWidth=1;fontFamily=Verdana;fontSize=8;align=center;" vertex="1" parent="1">
          <mxGeometry x="70" y="40" width="640" height="1100" as="geometry" />
        </mxCell>
        <mxCell id="FhH42oNWLTz3iLt1cTTA-3" value="应用层" style="swimlane;html=1;startSize=20;" vertex="1" parent="FhH42oNWLTz3iLt1cTTA-2">
          <mxGeometry y="20" width="160" height="1080" as="geometry" />
        </mxCell>
        <mxCell id="FhH42oNWLTz3iLt1cTTA-4" value="&lt;font style=&quot;font-size: 12px;&quot;&gt;完成任务&lt;/font&gt;" style="rounded=1;whiteSpace=wrap;html=1;shadow=0;labelBackgroundColor=none;strokeWidth=1;fontFamily=Verdana;fontSize=8;align=center;" vertex="1" parent="FhH42oNWLTz3iLt1cTTA-3">
          <mxGeometry x="30" y="42" width="100" height="60" as="geometry" />
        </mxCell>
        <mxCell id="FhH42oNWLTz3iLt1cTTA-5" value="&lt;span style=&quot;font-size: 12px;&quot;&gt;发送失败,告警&lt;/span&gt;" style="rounded=1;whiteSpace=wrap;html=1;shadow=0;labelBackgroundColor=none;strokeWidth=1;fontFamily=Verdana;fontSize=8;align=center;" vertex="1" parent="FhH42oNWLTz3iLt1cTTA-3">
          <mxGeometry x="30" y="680" width="100" height="60" as="geometry" />
        </mxCell>
        <mxCell id="FhH42oNWLTz3iLt1cTTA-6" value="轮训执行" style="text;html=1;align=center;verticalAlign=middle;whiteSpace=wrap;rounded=0;" vertex="1" parent="FhH42oNWLTz3iLt1cTTA-3">
          <mxGeometry x="10" y="119" width="110" height="30" as="geometry" />
        </mxCell>
        <mxCell id="FhH42oNWLTz3iLt1cTTA-7" style="edgeStyle=orthogonalEdgeStyle;rounded=1;html=1;labelBackgroundColor=none;startArrow=none;startFill=0;startSize=5;endArrow=classicThin;endFill=1;endSize=5;jettySize=auto;orthogonalLoop=1;strokeWidth=1;fontFamily=Verdana;fontSize=8" edge="1" parent="FhH42oNWLTz3iLt1cTTA-2" source="FhH42oNWLTz3iLt1cTTA-4" target="FhH42oNWLTz3iLt1cTTA-9">
          <mxGeometry relative="1" as="geometry" />
        </mxCell>
        <mxCell id="FhH42oNWLTz3iLt1cTTA-8" value="引擎层/任务引擎" style="swimlane;html=1;startSize=20;" vertex="1" parent="FhH42oNWLTz3iLt1cTTA-2">
          <mxGeometry x="160" y="20" width="160" height="1080" as="geometry" />
        </mxCell>
        <mxCell id="FhH42oNWLTz3iLt1cTTA-9" value="&lt;font style=&quot;font-size: 12px;&quot;&gt;根据任务场景&lt;/font&gt;&lt;div&gt;&lt;font style=&quot;font-size: 12px;&quot;&gt;匹配&lt;/font&gt;&lt;span style=&quot;font-size: 12px; background-color: transparent; color: light-dark(rgb(0, 0, 0), rgb(255, 255, 255));&quot;&gt;奖励任务&lt;/span&gt;&lt;/div&gt;" style="rounded=1;whiteSpace=wrap;html=1;shadow=0;labelBackgroundColor=none;strokeWidth=1;fontFamily=Verdana;fontSize=8;align=center;" vertex="1" parent="FhH42oNWLTz3iLt1cTTA-8">
          <mxGeometry x="30" y="42" width="100" height="60" as="geometry" />
        </mxCell>
        <mxCell id="FhH42oNWLTz3iLt1cTTA-10" value="&lt;span style=&quot;font-size: 12px;&quot;&gt;实时发送奖励&lt;/span&gt;" style="rounded=1;whiteSpace=wrap;html=1;shadow=0;labelBackgroundColor=none;strokeWidth=1;fontFamily=Verdana;fontSize=8;align=center;" vertex="1" parent="FhH42oNWLTz3iLt1cTTA-8">
          <mxGeometry x="30" y="441" width="100" height="60" as="geometry" />
        </mxCell>
        <mxCell id="FhH42oNWLTz3iLt1cTTA-11" value="是" style="edgeStyle=orthogonalEdgeStyle;rounded=0;orthogonalLoop=1;jettySize=auto;html=1;exitX=0.5;exitY=1;exitDx=0;exitDy=0;" edge="1" parent="FhH42oNWLTz3iLt1cTTA-8" source="FhH42oNWLTz3iLt1cTTA-12" target="FhH42oNWLTz3iLt1cTTA-15">
          <mxGeometry relative="1" as="geometry" />
        </mxCell>
        <mxCell id="FhH42oNWLTz3iLt1cTTA-12" value="&lt;span style=&quot;font-size: 12px;&quot;&gt;是否可&lt;/span&gt;&lt;div&gt;&lt;span style=&quot;font-size: 12px;&quot;&gt;发送奖励&lt;/span&gt;&lt;/div&gt;" style="rhombus;whiteSpace=wrap;html=1;rounded=0;shadow=0;labelBackgroundColor=none;strokeWidth=1;fontFamily=Verdana;fontSize=8;align=center;" vertex="1" parent="FhH42oNWLTz3iLt1cTTA-8">
          <mxGeometry x="40" y="680" width="80" height="60" as="geometry" />
        </mxCell>
        <mxCell id="FhH42oNWLTz3iLt1cTTA-13" style="edgeStyle=orthogonalEdgeStyle;rounded=0;orthogonalLoop=1;jettySize=auto;html=1;exitX=0.5;exitY=1;exitDx=0;exitDy=0;entryX=0.5;entryY=0;entryDx=0;entryDy=0;" edge="1" parent="FhH42oNWLTz3iLt1cTTA-8" source="FhH42oNWLTz3iLt1cTTA-14" target="FhH42oNWLTz3iLt1cTTA-12">
          <mxGeometry relative="1" as="geometry" />
        </mxCell>
        <mxCell id="FhH42oNWLTz3iLt1cTTA-14" value="&lt;span style=&quot;font-size: 12px;&quot;&gt;再次进行任务完成检查&lt;/span&gt;" style="rounded=1;whiteSpace=wrap;html=1;shadow=0;labelBackgroundColor=none;strokeWidth=1;fontFamily=Verdana;fontSize=8;align=center;" vertex="1" parent="FhH42oNWLTz3iLt1cTTA-8">
          <mxGeometry x="30" y="600" width="100" height="60" as="geometry" />
        </mxCell>
        <mxCell id="FhH42oNWLTz3iLt1cTTA-15" value="&lt;span style=&quot;font-size: 12px;&quot;&gt;更新Task明细&lt;/span&gt;&lt;div&gt;&lt;span style=&quot;font-size: 12px;&quot;&gt;状态为&lt;/span&gt;&lt;span style=&quot;font-size: 12px; background-color: transparent; color: light-dark(rgb(0, 0, 0), rgb(255, 255, 255));&quot;&gt;:&lt;/span&gt;&lt;/div&gt;&lt;div&gt;&lt;span style=&quot;font-size: 12px; background-color: transparent; color: light-dark(rgb(0, 0, 0), rgb(255, 255, 255));&quot;&gt;rewarding&lt;/span&gt;&lt;/div&gt;" style="rounded=1;whiteSpace=wrap;html=1;shadow=0;labelBackgroundColor=none;strokeWidth=1;fontFamily=Verdana;fontSize=8;align=center;" vertex="1" parent="FhH42oNWLTz3iLt1cTTA-8">
          <mxGeometry x="30" y="771" width="100" height="60" as="geometry" />
        </mxCell>
        <mxCell id="FhH42oNWLTz3iLt1cTTA-16" value="&lt;span style=&quot;font-size: 12px;&quot;&gt;发送奖励&lt;/span&gt;&lt;div&gt;&lt;span style=&quot;font-size: 12px;&quot;&gt;处理器&lt;/span&gt;&lt;span style=&quot;font-size: 12px;&quot;&gt;&lt;/span&gt;&lt;/div&gt;" style="rounded=1;whiteSpace=wrap;html=1;shadow=0;labelBackgroundColor=none;strokeWidth=1;fontFamily=Verdana;fontSize=8;align=center;" vertex="1" parent="FhH42oNWLTz3iLt1cTTA-8">
          <mxGeometry x="30" y="341" width="100" height="60" as="geometry" />
        </mxCell>
        <mxCell id="FhH42oNWLTz3iLt1cTTA-17" style="edgeStyle=orthogonalEdgeStyle;rounded=0;orthogonalLoop=1;jettySize=auto;html=1;exitX=0.5;exitY=1;exitDx=0;exitDy=0;entryX=0.5;entryY=0;entryDx=0;entryDy=0;" edge="1" parent="FhH42oNWLTz3iLt1cTTA-8" source="FhH42oNWLTz3iLt1cTTA-19" target="FhH42oNWLTz3iLt1cTTA-16">
          <mxGeometry relative="1" as="geometry" />
        </mxCell>
        <mxCell id="FhH42oNWLTz3iLt1cTTA-18" value="是" style="edgeLabel;html=1;align=center;verticalAlign=middle;resizable=0;points=[];" connectable="0" vertex="1" parent="FhH42oNWLTz3iLt1cTTA-17">
          <mxGeometry x="-0.25" relative="1" as="geometry">
            <mxPoint as="offset" />
          </mxGeometry>
        </mxCell>
        <mxCell id="FhH42oNWLTz3iLt1cTTA-19" value="&lt;span style=&quot;font-size: 12px;&quot;&gt;是否完成&lt;/span&gt;&lt;div&gt;&lt;span style=&quot;font-size: 12px;&quot;&gt;任务&lt;/span&gt;&lt;/div&gt;" style="rhombus;whiteSpace=wrap;html=1;rounded=0;shadow=0;labelBackgroundColor=none;strokeWidth=1;fontFamily=Verdana;fontSize=8;align=center;" vertex="1" parent="FhH42oNWLTz3iLt1cTTA-8">
          <mxGeometry x="40" y="249" width="80" height="60" as="geometry" />
        </mxCell>
        <mxCell id="FhH42oNWLTz3iLt1cTTA-20" value="基础层/奖励中心" style="swimlane;html=1;startSize=20;" vertex="1" parent="FhH42oNWLTz3iLt1cTTA-2">
          <mxGeometry x="320" y="20" width="160" height="1080" as="geometry" />
        </mxCell>
        <mxCell id="FhH42oNWLTz3iLt1cTTA-21" style="edgeStyle=orthogonalEdgeStyle;rounded=0;orthogonalLoop=1;jettySize=auto;html=1;exitX=0.5;exitY=1;exitDx=0;exitDy=0;entryX=0.5;entryY=0;entryDx=0;entryDy=0;" edge="1" parent="FhH42oNWLTz3iLt1cTTA-20" source="FhH42oNWLTz3iLt1cTTA-22" target="FhH42oNWLTz3iLt1cTTA-23">
          <mxGeometry relative="1" as="geometry" />
        </mxCell>
        <mxCell id="FhH42oNWLTz3iLt1cTTA-22" value="&lt;span style=&quot;color: rgb(0, 0, 0); font-family: Verdana; font-size: 12px; font-style: normal; font-variant-ligatures: normal; font-variant-caps: normal; font-weight: 400; letter-spacing: normal; orphans: 2; text-align: center; text-indent: 0px; text-transform: none; widows: 2; word-spacing: 0px; -webkit-text-stroke-width: 0px; white-space: normal; background-color: rgb(251, 251, 251); text-decoration-thickness: initial; text-decoration-style: initial; text-decoration-color: initial; float: none; display: inline !important;&quot;&gt;初始化奖励&lt;/span&gt;" style="rounded=1;whiteSpace=wrap;html=1;shadow=0;labelBackgroundColor=none;strokeWidth=1;fontFamily=Verdana;fontSize=8;align=center;" vertex="1" parent="FhH42oNWLTz3iLt1cTTA-20">
          <mxGeometry x="30" y="341" width="100" height="60" as="geometry" />
        </mxCell>
        <mxCell id="FhH42oNWLTz3iLt1cTTA-23" value="&lt;span style=&quot;color: rgb(0, 0, 0); font-family: Verdana; font-size: 12px; font-style: normal; font-variant-ligatures: normal; font-variant-caps: normal; font-weight: 400; letter-spacing: normal; orphans: 2; text-align: center; text-indent: 0px; text-transform: none; widows: 2; word-spacing: 0px; -webkit-text-stroke-width: 0px; white-space: normal; background-color: rgb(251, 251, 251); text-decoration-thickness: initial; text-decoration-style: initial; text-decoration-color: initial; float: none; display: inline !important;&quot;&gt;库存扣减&lt;/span&gt;" style="rounded=1;whiteSpace=wrap;html=1;shadow=0;labelBackgroundColor=none;strokeWidth=1;fontFamily=Verdana;fontSize=8;align=center;" vertex="1" parent="FhH42oNWLTz3iLt1cTTA-20">
          <mxGeometry x="30" y="441" width="100" height="60" as="geometry" />
        </mxCell>
        <mxCell id="FhH42oNWLTz3iLt1cTTA-24" value="&lt;span style=&quot;font-size: 12px;&quot;&gt;更新奖励状态:paying&lt;/span&gt;" style="rounded=1;whiteSpace=wrap;html=1;shadow=0;labelBackgroundColor=none;strokeWidth=1;fontFamily=Verdana;fontSize=8;align=center;" vertex="1" parent="FhH42oNWLTz3iLt1cTTA-20">
          <mxGeometry x="30" y="771" width="100" height="60" as="geometry" />
        </mxCell>
        <mxCell id="FhH42oNWLTz3iLt1cTTA-25" value="&lt;span style=&quot;font-size: 12px;&quot;&gt;更新奖励状态:invalid&lt;/span&gt;" style="rounded=1;whiteSpace=wrap;html=1;shadow=0;labelBackgroundColor=none;strokeWidth=1;fontFamily=Verdana;fontSize=8;align=center;" vertex="1" parent="FhH42oNWLTz3iLt1cTTA-20">
          <mxGeometry x="30" y="1000" width="100" height="60" as="geometry" />
        </mxCell>
        <mxCell id="FhH42oNWLTz3iLt1cTTA-26" style="edgeStyle=orthogonalEdgeStyle;rounded=0;orthogonalLoop=1;jettySize=auto;html=1;exitX=0;exitY=0.5;exitDx=0;exitDy=0;entryX=1;entryY=0.5;entryDx=0;entryDy=0;" edge="1" parent="FhH42oNWLTz3iLt1cTTA-2" source="FhH42oNWLTz3iLt1cTTA-23" target="FhH42oNWLTz3iLt1cTTA-10">
          <mxGeometry relative="1" as="geometry" />
        </mxCell>
        <mxCell id="FhH42oNWLTz3iLt1cTTA-27" style="edgeStyle=orthogonalEdgeStyle;rounded=0;orthogonalLoop=1;jettySize=auto;html=1;exitX=0;exitY=0.5;exitDx=0;exitDy=0;entryX=1;entryY=0.5;entryDx=0;entryDy=0;" edge="1" parent="FhH42oNWLTz3iLt1cTTA-2" source="FhH42oNWLTz3iLt1cTTA-12" target="FhH42oNWLTz3iLt1cTTA-5">
          <mxGeometry relative="1" as="geometry" />
        </mxCell>
        <mxCell id="FhH42oNWLTz3iLt1cTTA-28" value="否" style="edgeLabel;html=1;align=center;verticalAlign=middle;resizable=0;points=[];" connectable="0" vertex="1" parent="FhH42oNWLTz3iLt1cTTA-27">
          <mxGeometry x="-0.61" y="-1" relative="1" as="geometry">
            <mxPoint x="-6" y="1" as="offset" />
          </mxGeometry>
        </mxCell>
        <mxCell id="FhH42oNWLTz3iLt1cTTA-29" style="edgeStyle=orthogonalEdgeStyle;rounded=0;orthogonalLoop=1;jettySize=auto;html=1;exitX=1;exitY=0.5;exitDx=0;exitDy=0;entryX=0;entryY=0.5;entryDx=0;entryDy=0;" edge="1" parent="FhH42oNWLTz3iLt1cTTA-2" source="FhH42oNWLTz3iLt1cTTA-15" target="FhH42oNWLTz3iLt1cTTA-24">
          <mxGeometry relative="1" as="geometry" />
        </mxCell>
        <mxCell id="FhH42oNWLTz3iLt1cTTA-30" style="edgeStyle=orthogonalEdgeStyle;rounded=0;orthogonalLoop=1;jettySize=auto;html=1;exitX=1;exitY=0.5;exitDx=0;exitDy=0;entryX=0;entryY=0.5;entryDx=0;entryDy=0;" edge="1" parent="FhH42oNWLTz3iLt1cTTA-2" source="FhH42oNWLTz3iLt1cTTA-16" target="FhH42oNWLTz3iLt1cTTA-22">
          <mxGeometry relative="1" as="geometry" />
        </mxCell>
        <mxCell id="FhH42oNWLTz3iLt1cTTA-31" style="edgeStyle=orthogonalEdgeStyle;rounded=0;orthogonalLoop=1;jettySize=auto;html=1;exitX=1;exitY=0.5;exitDx=0;exitDy=0;entryX=0;entryY=0.5;entryDx=0;entryDy=0;" edge="1" parent="FhH42oNWLTz3iLt1cTTA-2" source="FhH42oNWLTz3iLt1cTTA-24" target="FhH42oNWLTz3iLt1cTTA-33">
          <mxGeometry relative="1" as="geometry" />
        </mxCell>
        <mxCell id="FhH42oNWLTz3iLt1cTTA-32" value="奖励下游(SPP)" style="swimlane;html=1;startSize=20;" vertex="1" parent="FhH42oNWLTz3iLt1cTTA-2">
          <mxGeometry x="480" y="20" width="160" height="1080" as="geometry" />
        </mxCell>
        <mxCell id="FhH42oNWLTz3iLt1cTTA-33" value="&lt;span style=&quot;font-size: 12px;&quot;&gt;发送奖励&lt;/span&gt;" style="rounded=1;whiteSpace=wrap;html=1;shadow=0;labelBackgroundColor=none;strokeWidth=1;fontFamily=Verdana;fontSize=8;align=center;" vertex="1" parent="FhH42oNWLTz3iLt1cTTA-32">
          <mxGeometry x="30" y="771" width="100" height="60" as="geometry" />
        </mxCell>
        <mxCell id="FhH42oNWLTz3iLt1cTTA-34" value="&lt;span style=&quot;font-size: 12px;&quot;&gt;更新Task明细&lt;/span&gt;&lt;div&gt;&lt;span style=&quot;font-size: 12px;&quot;&gt;状态为&lt;/span&gt;&lt;span style=&quot;font-size: 12px; background-color: transparent; color: light-dark(rgb(0, 0, 0), rgb(255, 255, 255));&quot;&gt;:&lt;/span&gt;&lt;/div&gt;&lt;div&gt;&lt;span style=&quot;font-size: 12px; background-color: transparent; color: light-dark(rgb(0, 0, 0), rgb(255, 255, 255));&quot;&gt;success&lt;/span&gt;&lt;/div&gt;" style="rounded=1;whiteSpace=wrap;html=1;shadow=0;labelBackgroundColor=none;strokeWidth=1;fontFamily=Verdana;fontSize=8;align=center;" vertex="1" parent="FhH42oNWLTz3iLt1cTTA-32">
          <mxGeometry x="-290" y="865" width="100" height="60" as="geometry" />
        </mxCell>
        <mxCell id="FhH42oNWLTz3iLt1cTTA-35" value="&lt;span style=&quot;color: rgb(0, 0, 0); font-size: 12px; background-color: rgb(251, 251, 251); float: none; display: inline !important;&quot;&gt;更新奖励状态:&lt;/span&gt;&lt;span style=&quot;color: rgb(23, 43, 77); font-family: -apple-system, &amp;quot;system-ui&amp;quot;, &amp;quot;Segoe UI&amp;quot;, Roboto, Oxygen, Ubuntu, &amp;quot;Fira Sans&amp;quot;, &amp;quot;Droid Sans&amp;quot;, &amp;quot;Helvetica Neue&amp;quot;, sans-serif; font-size: 14px; text-align: left; background-color: rgb(255, 255, 255);&quot;&gt;&amp;nbsp;Paid&lt;/span&gt;" style="rounded=1;whiteSpace=wrap;html=1;shadow=0;labelBackgroundColor=none;strokeWidth=1;fontFamily=Verdana;fontSize=8;align=center;" vertex="1" parent="FhH42oNWLTz3iLt1cTTA-32">
          <mxGeometry x="-130" y="865" width="100" height="60" as="geometry" />
        </mxCell>
        <mxCell id="FhH42oNWLTz3iLt1cTTA-36" value="&lt;span style=&quot;font-size: 12px;&quot;&gt;发送成功&lt;/span&gt;" style="rhombus;whiteSpace=wrap;html=1;rounded=0;shadow=0;labelBackgroundColor=none;strokeWidth=1;fontFamily=Verdana;fontSize=8;align=center;" vertex="1" parent="FhH42oNWLTz3iLt1cTTA-32">
          <mxGeometry x="40" y="865" width="80" height="60" as="geometry" />
        </mxCell>
        <mxCell id="FhH42oNWLTz3iLt1cTTA-37" style="edgeStyle=orthogonalEdgeStyle;rounded=0;orthogonalLoop=1;jettySize=auto;html=1;exitX=0.5;exitY=1;exitDx=0;exitDy=0;entryX=0.5;entryY=0;entryDx=0;entryDy=0;" edge="1" parent="FhH42oNWLTz3iLt1cTTA-32" target="FhH42oNWLTz3iLt1cTTA-36">
          <mxGeometry relative="1" as="geometry">
            <mxPoint x="80" y="831" as="sourcePoint" />
          </mxGeometry>
        </mxCell>
        <mxCell id="FhH42oNWLTz3iLt1cTTA-38" value="&lt;span style=&quot;font-size: 12px;&quot;&gt;告警&lt;/span&gt;" style="rounded=1;whiteSpace=wrap;html=1;shadow=0;labelBackgroundColor=none;strokeWidth=1;fontFamily=Verdana;fontSize=8;align=center;" vertex="1" parent="FhH42oNWLTz3iLt1cTTA-32">
          <mxGeometry x="30" y="1000" width="100" height="60" as="geometry" />
        </mxCell>
        <mxCell id="FhH42oNWLTz3iLt1cTTA-39" style="edgeStyle=orthogonalEdgeStyle;rounded=0;orthogonalLoop=1;jettySize=auto;html=1;exitX=0.5;exitY=1;exitDx=0;exitDy=0;entryX=0.5;entryY=0;entryDx=0;entryDy=0;" edge="1" parent="FhH42oNWLTz3iLt1cTTA-32" source="FhH42oNWLTz3iLt1cTTA-36" target="FhH42oNWLTz3iLt1cTTA-38">
          <mxGeometry relative="1" as="geometry">
            <mxPoint x="80" y="985" as="targetPoint" />
          </mxGeometry>
        </mxCell>
        <mxCell id="FhH42oNWLTz3iLt1cTTA-40" value="否" style="edgeLabel;html=1;align=center;verticalAlign=middle;resizable=0;points=[];" connectable="0" vertex="1" parent="FhH42oNWLTz3iLt1cTTA-39">
          <mxGeometry x="0.0842" y="-3" relative="1" as="geometry">
            <mxPoint x="3" y="-2" as="offset" />
          </mxGeometry>
        </mxCell>
        <mxCell id="FhH42oNWLTz3iLt1cTTA-41" style="edgeStyle=orthogonalEdgeStyle;rounded=0;orthogonalLoop=1;jettySize=auto;html=1;exitX=0;exitY=0.5;exitDx=0;exitDy=0;entryX=1;entryY=0.5;entryDx=0;entryDy=0;" edge="1" parent="FhH42oNWLTz3iLt1cTTA-32" source="FhH42oNWLTz3iLt1cTTA-36" target="FhH42oNWLTz3iLt1cTTA-35">
          <mxGeometry relative="1" as="geometry" />
        </mxCell>
        <mxCell id="FhH42oNWLTz3iLt1cTTA-42" value="是" style="edgeLabel;html=1;align=center;verticalAlign=middle;resizable=0;points=[];" connectable="0" vertex="1" parent="FhH42oNWLTz3iLt1cTTA-41">
          <mxGeometry x="-0.125" y="-1" relative="1" as="geometry">
            <mxPoint as="offset" />
          </mxGeometry>
        </mxCell>
        <mxCell id="FhH42oNWLTz3iLt1cTTA-43" style="edgeStyle=orthogonalEdgeStyle;rounded=0;orthogonalLoop=1;jettySize=auto;html=1;exitX=0;exitY=0.5;exitDx=0;exitDy=0;entryX=1;entryY=0.5;entryDx=0;entryDy=0;" edge="1" parent="FhH42oNWLTz3iLt1cTTA-32" source="FhH42oNWLTz3iLt1cTTA-35" target="FhH42oNWLTz3iLt1cTTA-34">
          <mxGeometry relative="1" as="geometry" />
        </mxCell>
        <mxCell id="FhH42oNWLTz3iLt1cTTA-44" style="edgeStyle=orthogonalEdgeStyle;rounded=0;orthogonalLoop=1;jettySize=auto;html=1;exitX=0.5;exitY=1;exitDx=0;exitDy=0;entryX=0.5;entryY=0;entryDx=0;entryDy=0;" edge="1" parent="FhH42oNWLTz3iLt1cTTA-2" source="FhH42oNWLTz3iLt1cTTA-36" target="FhH42oNWLTz3iLt1cTTA-25">
          <mxGeometry relative="1" as="geometry" />
        </mxCell>
        <mxCell id="FhH42oNWLTz3iLt1cTTA-45" value="否" style="edgeLabel;html=1;align=center;verticalAlign=middle;resizable=0;points=[];" vertex="1" connectable="0" parent="FhH42oNWLTz3iLt1cTTA-44">
          <mxGeometry x="-0.6809" y="1" relative="1" as="geometry">
            <mxPoint y="1" as="offset" />
          </mxGeometry>
        </mxCell>
        <mxCell id="FhH42oNWLTz3iLt1cTTA-46" value="" style="endArrow=none;dashed=1;html=1;rounded=0;" edge="1" parent="1" source="FhH42oNWLTz3iLt1cTTA-57">
          <mxGeometry width="50" height="50" relative="1" as="geometry">
            <mxPoint x="70" y="605" as="sourcePoint" />
            <mxPoint x="710" y="605" as="targetPoint" />
          </mxGeometry>
        </mxCell>
        <mxCell id="FhH42oNWLTz3iLt1cTTA-47" style="edgeStyle=orthogonalEdgeStyle;rounded=0;orthogonalLoop=1;jettySize=auto;html=1;exitX=0;exitY=0.5;exitDx=0;exitDy=0;entryX=1;entryY=0.5;entryDx=0;entryDy=0;" edge="1" parent="1" source="FhH42oNWLTz3iLt1cTTA-48" target="FhH42oNWLTz3iLt1cTTA-50">
          <mxGeometry relative="1" as="geometry" />
        </mxCell>
        <mxCell id="FhH42oNWLTz3iLt1cTTA-48" value="&lt;span style=&quot;font-size: 12px;&quot;&gt;任务完成条件&lt;/span&gt;&lt;div&gt;&lt;span style=&quot;font-size: 12px;&quot;&gt;处理器&lt;/span&gt;&lt;/div&gt;" style="rounded=1;whiteSpace=wrap;html=1;shadow=0;labelBackgroundColor=none;strokeWidth=1;fontFamily=Verdana;fontSize=8;align=center;" vertex="1" parent="1">
          <mxGeometry x="260" y="209" width="100" height="60" as="geometry" />
        </mxCell>
        <mxCell id="FhH42oNWLTz3iLt1cTTA-49" style="edgeStyle=orthogonalEdgeStyle;rounded=0;orthogonalLoop=1;jettySize=auto;html=1;exitX=0.5;exitY=1;exitDx=0;exitDy=0;entryX=0.5;entryY=0;entryDx=0;entryDy=0;" edge="1" parent="1" source="FhH42oNWLTz3iLt1cTTA-50" target="FhH42oNWLTz3iLt1cTTA-19">
          <mxGeometry relative="1" as="geometry" />
        </mxCell>
        <mxCell id="FhH42oNWLTz3iLt1cTTA-50" value="&lt;span style=&quot;font-size: 12px;&quot;&gt;业务逻辑&lt;/span&gt;" style="rounded=1;whiteSpace=wrap;html=1;shadow=0;labelBackgroundColor=none;strokeWidth=1;fontFamily=Verdana;fontSize=8;align=center;" vertex="1" parent="1">
          <mxGeometry x="100" y="209" width="100" height="60" as="geometry" />
        </mxCell>
        <mxCell id="FhH42oNWLTz3iLt1cTTA-51" value="&lt;span style=&quot;font-size: 12px;&quot;&gt;返回失败&lt;/span&gt;" style="rounded=1;whiteSpace=wrap;html=1;shadow=0;labelBackgroundColor=none;strokeWidth=1;fontFamily=Verdana;fontSize=8;align=center;" vertex="1" parent="1">
          <mxGeometry x="100" y="309" width="100" height="60" as="geometry" />
        </mxCell>
        <mxCell id="FhH42oNWLTz3iLt1cTTA-52" style="edgeStyle=orthogonalEdgeStyle;rounded=0;orthogonalLoop=1;jettySize=auto;html=1;exitX=0;exitY=0.5;exitDx=0;exitDy=0;entryX=1;entryY=0.5;entryDx=0;entryDy=0;" edge="1" parent="1" source="FhH42oNWLTz3iLt1cTTA-19" target="FhH42oNWLTz3iLt1cTTA-51">
          <mxGeometry relative="1" as="geometry" />
        </mxCell>
        <mxCell id="FhH42oNWLTz3iLt1cTTA-53" value="否" style="edgeLabel;html=1;align=center;verticalAlign=middle;resizable=0;points=[];" connectable="0" vertex="1" parent="FhH42oNWLTz3iLt1cTTA-52">
          <mxGeometry x="-0.2" y="1" relative="1" as="geometry">
            <mxPoint as="offset" />
          </mxGeometry>
        </mxCell>
        <mxCell id="FhH42oNWLTz3iLt1cTTA-54" style="edgeStyle=orthogonalEdgeStyle;rounded=0;orthogonalLoop=1;jettySize=auto;html=1;exitX=0.5;exitY=1;exitDx=0;exitDy=0;entryX=0.5;entryY=0;entryDx=0;entryDy=0;" edge="1" parent="1" source="FhH42oNWLTz3iLt1cTTA-9" target="FhH42oNWLTz3iLt1cTTA-48">
          <mxGeometry relative="1" as="geometry" />
        </mxCell>
        <mxCell id="FhH42oNWLTz3iLt1cTTA-55" value="" style="endArrow=none;dashed=1;html=1;rounded=0;" edge="1" parent="1" target="FhH42oNWLTz3iLt1cTTA-57">
          <mxGeometry width="50" height="50" relative="1" as="geometry">
            <mxPoint x="70" y="605" as="sourcePoint" />
            <mxPoint x="710" y="605" as="targetPoint" />
          </mxGeometry>
        </mxCell>
        <mxCell id="FhH42oNWLTz3iLt1cTTA-56" style="edgeStyle=orthogonalEdgeStyle;rounded=0;orthogonalLoop=1;jettySize=auto;html=1;exitX=0.5;exitY=1;exitDx=0;exitDy=0;entryX=0.5;entryY=0;entryDx=0;entryDy=0;" edge="1" parent="1" source="FhH42oNWLTz3iLt1cTTA-57" target="FhH42oNWLTz3iLt1cTTA-14">
          <mxGeometry relative="1" as="geometry" />
        </mxCell>
        <mxCell id="FhH42oNWLTz3iLt1cTTA-57" value="&lt;div&gt;&lt;span style=&quot;color: rgb(0, 0, 0); font-family: Verdana; font-size: 12px; font-style: normal; font-variant-ligatures: normal; font-variant-caps: normal; font-weight: 400; letter-spacing: normal; orphans: 2; text-align: center; text-indent: 0px; text-transform: none; widows: 2; word-spacing: 0px; -webkit-text-stroke-width: 0px; white-space: normal; background-color: rgb(251, 251, 251); text-decoration-thickness: initial; text-decoration-style: initial; text-decoration-color: initial; float: none; display: inline !important;&quot;&gt;创建Task明细&lt;/span&gt;&lt;/div&gt;&lt;div&gt;&lt;span style=&quot;color: rgb(0, 0, 0); font-family: Verdana; font-size: 12px; font-style: normal; font-variant-ligatures: normal; font-variant-caps: normal; font-weight: 400; letter-spacing: normal; orphans: 2; text-align: center; text-indent: 0px; text-transform: none; widows: 2; word-spacing: 0px; -webkit-text-stroke-width: 0px; white-space: normal; background-color: rgb(251, 251, 251); text-decoration-thickness: initial; text-decoration-style: initial; text-decoration-color: initial; float: none; display: inline !important;&quot;&gt;状态为:&lt;/span&gt;&lt;/div&gt;&lt;div&gt;&lt;span style=&quot;color: rgb(0, 0, 0); font-family: Verdana; font-size: 12px; font-style: normal; font-variant-ligatures: normal; font-variant-caps: normal; font-weight: 400; letter-spacing: normal; orphans: 2; text-align: center; text-indent: 0px; text-transform: none; widows: 2; word-spacing: 0px; -webkit-text-stroke-width: 0px; white-space: normal; background-color: rgb(251, 251, 251); text-decoration-thickness: initial; text-decoration-style: initial; text-decoration-color: initial; float: none; display: inline !important;&quot;&gt;ongoing&lt;/span&gt;&lt;/div&gt;" style="rounded=1;whiteSpace=wrap;html=1;shadow=0;labelBackgroundColor=none;strokeWidth=1;fontFamily=Verdana;fontSize=8;align=center;" vertex="1" parent="1">
          <mxGeometry x="260" y="580" width="100" height="60" as="geometry" />
        </mxCell>
        <mxCell id="FhH42oNWLTz3iLt1cTTA-58" style="edgeStyle=orthogonalEdgeStyle;rounded=0;orthogonalLoop=1;jettySize=auto;html=1;exitX=0.5;exitY=1;exitDx=0;exitDy=0;entryX=0.5;entryY=0;entryDx=0;entryDy=0;" edge="1" parent="1" source="FhH42oNWLTz3iLt1cTTA-10" target="FhH42oNWLTz3iLt1cTTA-57">
          <mxGeometry relative="1" as="geometry" />
        </mxCell>
      </root>
    </mxGraphModel>
  </diagram>
</mxfile>
